<svg width="679" height="271" viewBox="0 0 679 271" fill="none" xmlns="http://www.w3.org/2000/svg">
<path fill-rule="evenodd" clip-rule="evenodd" d="M597.701 1720.39C595.661 1723.38 593.609 1726.34 591.548 1729.26C591.548 1729.26 590.148 1728.34 589.681 1728.04C587.991 1729.6 587.701 1732.08 586.011 1733.64C574.937 1742.39 561.79 1743.11 548.995 1749.4L547.129 1748.17L545.905 1750.04L544.039 1748.82L542.815 1750.68L540.949 1749.46L539.726 1751.33C534.915 1749.51 529.363 1751.87 526.081 1747.72L524.857 1749.58C521.592 1747.44 518.807 1747.62 516.024 1747.79C508.429 1746.15 499.932 1747.92 492.337 1746.27C482.731 1744.65 473.721 1740.07 463.518 1741.39C462.279 1741.25 461.025 1739.09 459.785 1738.94C454.057 1738.52 448.022 1738.57 443.051 1735.98C442.279 1736.14 440.428 1736.93 439.961 1736.62C436.534 1733.71 433.123 1732.81 428.182 1734.24C426.944 1734.09 425.85 1732.71 424.45 1731.79C419.639 1729.97 414.699 1731.4 410.805 1728.18C410.653 1728.08 410.321 1728.15 409.927 1728.27L122.435 1539.8C121.639 1538.8 120.825 1537.82 119.97 1536.85C118.409 1535.16 118.233 1532.37 116.512 1529.91C115.113 1528.99 113.407 1528.54 112.78 1527.46C104.61 1511.43 95.683 1497.58 86.129 1482.64C84.408 1480.18 84.682 1475.69 82.028 1472.61C79.374 1469.54 76.72 1466.46 75.144 1462.76C73.772 1458.26 71.277 1454.58 68.702 1450.93C67.155 1446.55 65.669 1442.12 64.249 1437.64C54.364 1418.66 45.36 1399.29 37.187 1379.61C35.595 1374.29 34.127 1368.94 32.754 1363.59C27.192 1344.6 21.324 1326.08 18.546 1306.91C11.818 1257.14 5.587 1211.7 1.788 1160.51C0.953 1152.62 2.758 1145.8 2.696 1137.75C2.198 1133.42 0.622 1129.72 0.124 1125.39C0.254 1122.14 1.157 1118.73 1.286 1115.48C1.27 1113.47 0.016 1111.31 0 1109.3C1.354 1104.19 1.789 1100.47 0.519 1096.3C0.182 1092.74 1.551 1089.64 1.68 1086.39C-0.839 1060.72 -0.0910001 1037.2 2.346 1012.11C2.33 1010.1 1.076 1007.94 1.06 1005.93C2.061 995.244 2.916 985.798 2.678 974.969C2.969 972.491 4.192 970.625 4.482 968.146C4.13 962.579 5.178 957.928 6.224 953.278C6.209 951.267 4.954 949.11 4.939 947.099C7.469 934.081 8.454 921.385 11.451 908.673C13.416 902.623 15.075 897.04 16.574 890.684C23.37 869.123 27.689 847.272 35.259 825.55C37.981 817.328 40.091 810.039 42.201 802.75C54.976 753.755 69.778 706.755 80.075 657.469C81.428 652.352 84.02 647.38 84.907 641.957C85.197 639.479 84.554 636.391 84.845 633.912C88.567 615.005 95.089 597.934 99.745 579.639C100.341 576.694 103.11 574.506 104.172 571.868C105.686 567.523 106.267 562.567 107.781 558.223C108.844 555.584 111.612 553.396 112.675 550.758C113.432 548.586 113.722 546.107 114.479 543.935C117.538 539.269 119.824 534.765 121.644 529.954C123.464 525.142 125.139 521.571 127.118 517.532C128.633 513.188 132.013 510.067 133.993 506.029C135.056 503.39 135.958 499.979 137.021 497.34C140.837 490.502 144.347 484.131 148.323 478.065C164.664 450.086 180.845 421.335 202.624 396.254C208.145 389.868 211.494 382.724 216.549 376.031C217.933 374.937 219.478 374.616 220.863 373.522C223.776 370.095 225.29 365.751 228.203 362.324C229.893 360.764 232.05 359.509 233.74 357.949L237.411 352.35C239.101 350.789 241.258 349.535 242.948 347.975L246.618 342.376C248.308 340.815 250.465 339.561 252.155 338C254.151 335.974 255.053 332.562 257.515 330.841C261.974 327.093 264.261 322.588 267.947 319.001C274.707 312.759 280.067 305.6 287.294 299.664C289.757 297.943 290.659 294.532 293.121 292.81C297.58 289.062 299.4 284.251 303.553 280.97C308.622 276.289 314.32 272.686 317.83 266.315C318.747 264.915 320.759 264.899 322.143 263.806C325.057 260.379 327.037 256.34 330.884 253.525C335.809 250.083 337.613 243.261 342.538 239.819C345.773 237.937 346.515 233.753 349.122 230.793L352.212 230.15C354.514 227.657 356.044 225.324 358.506 223.603C360.969 221.882 361.871 218.471 363.867 216.443C365.251 215.35 366.796 215.028 368.18 213.934C369.87 212.374 370.16 209.896 371.85 208.335C373.235 207.242 375.246 207.226 376.164 205.827C378.305 202.56 380.928 201.612 382.458 199.279C388.124 191.653 395.978 186.796 403.205 180.86C404.895 179.3 405.492 176.355 407.342 175.567C411.044 173.991 414.424 170.87 418.592 169.6C419.67 168.973 419.655 166.961 421.039 165.868C422.118 165.24 423.051 165.852 424.129 165.225C425.513 164.131 425.498 162.12 426.576 161.492C430.278 159.916 434.751 158.18 436.426 154.608L438.292 155.831C446.147 150.974 454.001 146.116 462.949 142.643C464.027 142.016 464.317 139.538 465.09 139.377C469.113 139.346 469.082 135.323 473.105 135.292C473.877 135.131 474.168 132.653 475.246 132.026C479.414 130.756 482.488 128.102 485.563 125.448C487.253 123.887 490.036 123.711 492.499 121.99L494.946 118.257C498.793 115.442 502.8 113.4 506.486 109.812C509.255 107.625 513.262 105.582 516.336 102.928C526.638 94.3385 539.432 88.0505 550.361 80.5385C572.975 63.3435 596.231 49.2375 623.687 37.8845C644.512 29.5225 662.087 21.0315 682.285 11.5915C684.136 10.8035 686.614 11.0935 688.464 10.3055C695.24 6.07546 702.643 2.92346 710.674 0.850464C711.913 0.995464 713.167 3.15146 714.406 3.29746C718.429 3.26646 721.97 0.917464 725.542 2.59246C733.313 7.01946 741.084 11.4475 747.632 17.7415C750.592 20.3485 750.477 25.6105 753.598 28.9915L752.375 30.8575C759.145 45.9695 758.336 61.4495 761.244 77.3645C761.42 80.1485 761.451 84.1715 762.094 87.2615C764.582 108.905 763.192 129.341 761.351 151.483C761.222 154.733 763.409 157.502 763.28 160.752C763.135 161.992 760.978 163.246 760.833 164.485C764.544 184.263 759.888 202.558 759.271 222.833C758.057 246.053 756.523 267.728 751.898 290.046C750.705 295.935 750.737 299.958 751.395 305.059C751.249 306.299 749.093 307.553 748.948 308.792C748.232 336.341 742.077 360.992 739.656 388.09C739.511 389.329 737.354 390.583 737.209 391.822C734.756 414.897 734.621 437.49 732.635 460.871C732.49 462.11 734.356 463.333 734.678 464.878C733.967 473.085 734.802 480.97 733.625 488.871C732.609 497.544 733.137 505.895 734.278 513.314C736.061 523.823 733.209 535.295 734.059 545.192C734.681 565.612 730.958 584.519 726.463 603.586C725.867 606.531 726.349 608.849 726.525 611.632C726.38 612.871 724.223 614.126 724.078 615.365C725.83 621.85 721.226 626.839 722.979 633.323C722.833 634.562 720.677 635.817 720.532 637.056C720.272 643.557 718.001 650.073 716.809 655.962C715.456 661.079 715.969 667.419 713.843 672.697C712.926 674.097 714.647 676.559 714.662 678.571C714.517 679.809 712.361 681.064 712.215 682.303C713.195 688.95 713.097 696.223 709.892 702.128L710.535 705.217C705.19 714.388 700.618 723.398 692.939 731.039C688.481 734.789 682.929 737.152 676.909 739.209C675.059 739.997 672.29 742.185 669.33 739.578C667.656 743.149 663.939 742.714 662.233 742.263C659.595 741.201 656.826 743.388 655.105 740.925L653.881 742.791C652.642 742.646 651.388 740.49 650.149 740.344C646.126 740.375 641.797 740.873 638.37 737.959L637.147 739.826C633.881 737.684 631.418 739.406 628.152 737.265C626.753 736.347 624.29 738.068 622.279 738.083C617.628 737.036 613.605 737.067 609.582 737.098C595.035 736.901 582.163 733.132 567.456 732.162C555.226 731.483 543.624 731.882 530.622 731.363C529.077 731.684 528.159 733.084 526.308 733.872C519.517 736.091 512.213 731.969 505.437 736.199C501.896 738.548 497.552 737.034 493.223 737.531C476.696 741.372 460.474 744.747 443.947 748.588C407.496 757.38 373.042 764.145 336.768 775.72C328.432 778.26 321.029 781.412 312.532 783.18C310.681 783.969 309.152 786.301 306.995 787.555C253.743 804.678 213.502 843.672 186.471 889.993C186.019 891.698 186.807 893.549 185.889 894.949C180.384 903.347 176.117 911.891 173.717 921.658C172.96 923.83 170.803 925.084 170.513 927.562C169.175 934.691 168.61 941.659 166.033 948.641C162.072 956.719 159.495 963.701 160.636 971.12C161.937 979.311 157.815 986.616 158.956 994.034C159.308 999.602 158.406 1003.01 158.437 1007.04C158.706 1021.89 158.188 1034.89 160.614 1048.49C162.734 1062.55 166.077 1074.75 168.197 1088.82C168.84 1091.91 171.8 1094.52 173.216 1097.44C173.537 1098.99 172.313 1100.86 172.941 1101.93C188.607 1126.88 203.355 1153.23 227.005 1170.07C228.566 1171.76 229.82 1173.91 231.381 1175.6C253.937 1191.06 277.265 1206.35 300.433 1220.87C302.605 1221.63 305.084 1221.92 307.256 1222.68C324.358 1233.22 343.135 1240.19 362.539 1248.25C366.112 1249.92 368.299 1252.69 371.871 1254.36C374.043 1255.12 376.521 1255.41 378.694 1256.17L384.292 1259.84C386.465 1260.6 388.943 1260.89 391.115 1261.64C392.981 1262.87 394.541 1264.56 396.714 1265.31C401.364 1266.36 405.097 1268.81 409.441 1270.32C415.185 1272.75 421.074 1273.95 426.818 1276.38C452.884 1285.46 477.872 1295.17 502.263 1307.83C504.435 1308.58 507.219 1308.41 509.085 1309.63C513.284 1312.38 517.629 1313.9 521.201 1315.57C543.114 1327.94 564.722 1340.77 584.349 1357.64C589.803 1362.55 595.547 1364.98 600.534 1369.58C601.161 1370.66 600.549 1371.59 601.177 1372.67C602.27 1374.06 604.282 1374.04 604.909 1375.12C606.485 1378.82 609.606 1382.2 610.715 1385.6C618.273 1402.56 624.126 1419.07 624.587 1438.72C624.924 1442.28 627.272 1445.82 627.609 1449.37C628.024 1462.99 629.05 1475.67 628.692 1489.44C628.432 1495.94 626.613 1500.75 627.593 1507.4C627.447 1508.64 625.291 1509.89 625.145 1511.13C625.513 1518.71 623.097 1526.47 622.066 1533.13C619.758 1554.96 614.812 1575.74 615.449 1598.17C615.657 1604.98 613.997 1610.56 614.816 1616.43C614.671 1617.67 612.514 1618.93 612.369 1620.17C612.592 1628.98 611.882 1637.19 609.932 1645.25C609.481 1646.96 610.736 1649.11 610.751 1651.13C610.606 1652.37 608.45 1653.62 608.305 1654.86C608.817 1661.2 607.159 1666.78 605.966 1672.67C605.691 1677.16 604.322 1680.27 604.82 1684.6C604.675 1685.83 602.518 1687.09 602.373 1688.33C601.984 1698.08 599.729 1706.61 600.112 1716.2C599.967 1717.44 597.81 1718.69 597.665 1719.93C597.666 1720.08 597.686 1720.24 597.701 1720.39Z" fill="#F8A271"/>
</svg>
