<svg width="21" height="21" viewBox="0 0 21 21" fill="none" xmlns="http://www.w3.org/2000/svg">
<path d="M16.0105 2.31249L15.9376 6.2604C15.9272 6.80207 16.271 7.52082 16.7085 7.84374L19.2918 9.80208C20.948 11.0521 20.6772 12.5833 18.698 13.2083L15.3335 14.2604C14.771 14.4375 14.1772 15.0521 14.0314 15.625L13.2293 18.6875C12.5939 21.1042 11.0105 21.3437 9.69801 19.2187L7.86467 16.25C7.53133 15.7083 6.73967 15.3021 6.11467 15.3333L2.63554 15.5104C0.145959 15.6354 -0.562384 14.1979 1.06262 12.3021L3.1251 9.90624C3.51051 9.45832 3.68759 8.625 3.51051 8.0625L2.45848 4.6979C1.84389 2.71874 2.94805 1.625 4.9168 2.27083L7.98972 3.28125C8.51056 3.44792 9.29179 3.33332 9.72929 3.01041L12.9376 0.697905C14.6668 -0.552095 16.0522 0.177075 16.0105 2.31249Z" fill="#614731"/>
</svg>
